<svg width="40" height="40" viewBox="0 0 40 40" fill="none" xmlns="http://www.w3.org/2000/svg">
<path d="M24.9332 10.0892C25.387 10.0892 25.7554 9.72122 25.7554 9.267V4.37767C25.7554 3.92345 25.3874 3.55545 24.9332 3.55545C24.479 3.55545 24.111 3.92345 24.111 4.37767V9.267C24.111 9.72122 24.479 10.0892 24.9332 10.0892ZM15.0661 10.0892C15.5203 10.0892 15.8883 9.72122 15.8883 9.267V4.37767C15.8883 3.92345 15.5203 3.55545 15.0661 3.55545C14.6119 3.55545 14.2439 3.92345 14.2439 4.37767V9.267C14.2439 9.72122 14.6119 10.0892 15.0661 10.0892ZM29.8661 1.91056C29.4123 1.91056 29.0439 2.27856 29.0439 2.73278V9.951C27.6239 10.7768 22.9785 13.4777 22.9568 13.4901C22.1234 13.9714 21.4034 14.6034 20.8217 15.3408V1.08834C20.8217 0.634558 20.4537 0.266113 19.9994 0.266113C19.5452 0.266113 19.1772 0.634558 19.1772 1.08834V15.3394C18.5972 14.6048 17.8808 13.9746 17.0523 13.4963C17.0234 13.479 13.3937 11.3683 10.955 9.951V2.73278C10.955 2.27856 10.587 1.91056 10.1328 1.91056C9.67855 1.91056 9.31055 2.27856 9.31055 2.73278V29.3963L9.31766 29.615L9.32344 29.6252C9.4301 32.2021 10.859 34.5799 13.0892 35.8675L19.9999 39.8608L26.9101 35.8688C29.1403 34.5808 30.5692 32.203 30.6759 29.6261L30.6874 18.0243C30.6874 18.0208 30.6883 18.0172 30.6883 18.0141V2.73278C30.6883 2.27856 30.3203 1.91056 29.8661 1.91056ZM19.1777 37.4861L13.9119 34.4439C12.0945 33.395 10.9919 31.5088 10.9621 29.3977L10.9585 22.599C11.5399 23.3346 12.259 23.9657 13.0897 24.4448L19.1777 27.9621V37.4861ZM13.9114 23.0212C12.0941 21.9728 10.9919 20.0866 10.9621 17.9754L10.9559 17.8363L10.9554 16.9732V11.8532C12.819 12.9368 16.1421 14.8688 16.2203 14.9146C18.0257 15.9572 19.1559 17.907 19.1705 20.003L19.1781 26.0639L13.9114 23.0212ZM29.0443 29.191L29.0372 29.3981C29.0079 31.5088 27.9048 33.395 26.0874 34.4443L20.8221 37.4866V27.9626L26.9101 24.4457C27.7421 23.9657 28.4621 23.3332 29.0443 22.5959V29.191ZM29.0443 17.7683L29.0372 17.9754C29.0079 20.0866 27.9052 21.9728 26.0874 23.0217L20.8221 26.0639V20.2283L20.8292 20.0034C20.8439 17.9074 21.9741 15.9577 23.7834 14.9123C23.8425 14.8781 27.1763 12.9399 29.0443 11.8537V17.7683Z" fill="black"/>
</svg>
