<svg width="40" height="40" viewBox="0 0 40 40" fill="none" xmlns="http://www.w3.org/2000/svg">
<path d="M20.0192 3.08008L0.263184 14.4712V37.1254H39.7152L39.7365 14.4756L20.0192 3.08008ZM38.0712 35.4814H29.0472V14.0654C29.0472 13.6116 28.6792 13.2432 28.225 13.2432C27.7707 13.2432 27.4027 13.6116 27.4027 14.0654V35.4814H12.6027V14.0654C12.6027 13.6116 12.2343 13.2432 11.7805 13.2432C11.3267 13.2432 10.9583 13.6116 10.9583 14.0654V35.4814H1.90763V15.4214L20.0183 4.97919L38.0787 15.417L38.0712 35.4814ZM17.537 14.9254V18.1454H22.4694V14.9254C22.4694 13.565 21.3636 12.4587 20.0036 12.4587C18.6432 12.4587 17.537 13.565 17.537 14.9254ZM20.825 14.9254V16.5005H19.181V14.9254C19.181 14.4721 19.5499 14.1032 20.0032 14.1032C20.4565 14.1032 20.825 14.4721 20.825 14.9254ZM19.2294 29.7254H20.8738V24.7921H19.2294V29.7254ZM34.809 24.7921H33.165V29.7254H34.809V24.7921ZM5.20318 29.7254H6.84763V24.7921H5.20318V29.7254Z" fill="black"/>
</svg>
