<svg width="31" height="37" viewBox="0 0 31 37" fill="none" xmlns="http://www.w3.org/2000/svg">
<path d="M1.69922 31.1724H25.8371" stroke="black" stroke-width="1.5" stroke-miterlimit="10" stroke-linecap="round" stroke-linejoin="round"/>
<path d="M16.7856 1H4.11315C2.78013 1 1.69936 2.08078 1.69936 3.41379V31.1724L1.05487 33.7509C0.769442 34.8933 1.63358 36 2.81091 36H28.3458C29.5238 36 30.3879 34.8933 30.1019 33.7503L29.458 31.1724V3.41379C29.458 2.08078 28.3772 1 27.0442 1H20.4063" stroke="black" stroke-width="1.5" stroke-miterlimit="10" stroke-linecap="round" stroke-linejoin="round"/>
<path d="M23.1839 20.5366L25.0835 23.8272C25.4197 24.4102 24.9997 25.1379 24.3268 25.1379H14.3735" stroke="black" stroke-width="1.5" stroke-miterlimit="10" stroke-linecap="round"/>
<path d="M16.7873 22.7241L14.3735 25.1379L16.7873 27.5517" stroke="black" stroke-width="1.5" stroke-miterlimit="10" stroke-linecap="round" stroke-linejoin="round"/>
<path d="M12.9282 11.9624L14.8279 8.67182C15.164 8.08889 16.0052 8.08889 16.3419 8.67182L21.318 17.2915" stroke="black" stroke-width="1.5" stroke-miterlimit="10" stroke-linecap="round"/>
<path d="M18.021 16.4077L21.3182 17.2911L22.2017 13.9939" stroke="black" stroke-width="1.5" stroke-miterlimit="10" stroke-linecap="round" stroke-linejoin="round"/>
<path d="M10.6303 25.1312H6.83037C6.15752 25.1312 5.73692 24.4028 6.07364 23.8205L11.0503 15.2014" stroke="black" stroke-width="1.5" stroke-miterlimit="10" stroke-linecap="round"/>
<path d="M11.9336 18.4979L11.0502 15.2007L7.75293 16.0841" stroke="black" stroke-width="1.5" stroke-miterlimit="10" stroke-linecap="round" stroke-linejoin="round"/>
</svg>
