<svg width="40" height="40" viewBox="0 0 40 40" fill="none" xmlns="http://www.w3.org/2000/svg">
<g clip-path="url(#clip0_113_885)">
<path d="M39.1667 20.6147H37.3167C36.8146 18.9066 35.9358 17.3356 34.7465 16.02C33.5572 14.7044 32.0882 13.6783 30.45 13.0189C31.54 11.6044 32.1271 9.86019 32.1167 8.06737C32.1167 5.92777 31.2756 3.8758 29.7784 2.36288C28.2812 0.849952 26.2506 0 24.1333 0C22.016 0 19.9854 0.849952 18.4883 2.36288C16.9911 3.8758 16.15 5.92777 16.15 8.06737C16.1546 9.95632 16.822 11.7824 18.0333 13.2211C17.0667 13.4905 15.6333 13.9453 13.8167 14.6189C12.3702 12.6196 10.6662 10.8241 8.75 9.28C8.62632 9.18121 8.47745 9.11989 8.32066 9.10318C8.16387 9.08647 8.00561 9.11504 7.86425 9.18558C7.7229 9.25612 7.60424 9.36574 7.52206 9.5017C7.43989 9.63766 7.39756 9.79439 7.4 9.95368V18.5263C5.92776 19.7236 4.56657 21.054 3.33334 22.5011H0.833338C0.612325 22.5011 0.400363 22.5898 0.244083 22.7477C0.0878024 22.9056 5.05459e-06 23.1198 5.05459e-06 23.3432V29.6253C-0.000561302 29.7896 0.0464781 29.9505 0.135324 30.0882C0.224171 30.2259 0.35094 30.3343 0.500005 30.4L12.0833 35.4526V37.5074C12.0877 38.1716 12.3507 38.8073 12.8155 39.277C13.2803 39.7466 13.9094 40.0124 14.5667 40.0168H17.1167C17.7739 40.0124 18.4031 39.7466 18.8678 39.277C19.3326 38.8073 19.5956 38.1716 19.6 37.5074V35.7053H26.0167V37.4737C26.021 38.1379 26.2841 38.7736 26.7488 39.2433C27.2136 39.7129 27.8427 39.9787 28.5 39.9832H31.05C31.7073 39.9787 32.3364 39.7129 32.8012 39.2433C33.2659 38.7736 33.529 38.1379 33.5333 37.4737V32.9768C35.0911 31.7188 36.2923 30.0671 37.0152 28.189C37.7381 26.311 37.9571 24.2732 37.65 22.2821H39.1333C39.3544 22.2821 39.5663 22.1934 39.7226 22.0355C39.8789 21.8775 39.9667 21.6633 39.9667 21.44C39.9667 21.2167 39.8789 21.0025 39.7226 20.8445C39.5663 20.6866 39.3544 20.5979 39.1333 20.5979L39.1667 20.6147ZM24.2 1.68421C25.4493 1.68421 26.6706 2.05858 27.7094 2.75997C28.7481 3.46136 29.5578 4.45827 30.0358 5.62464C30.5139 6.79101 30.639 8.07445 30.3953 9.31266C30.1516 10.5509 29.55 11.6882 28.6666 12.5809C27.7832 13.4736 26.6576 14.0816 25.4323 14.3279C24.207 14.5742 22.9369 14.4478 21.7827 13.9646C20.6285 13.4815 19.642 12.6634 18.9479 11.6137C18.2538 10.564 17.8833 9.32984 17.8833 8.06737C17.8833 6.37445 18.5488 4.75087 19.7334 3.55379C20.9181 2.35672 22.5247 1.68421 24.2 1.68421ZM32.2333 32L32.1167 32.1347V32.2526C32.1122 32.3031 32.1122 32.3538 32.1167 32.4042C32.1113 32.4602 32.1113 32.5166 32.1167 32.5726V37.4568C32.1124 37.6744 32.025 37.8818 31.8728 38.0356C31.7205 38.1895 31.5153 38.2778 31.3 38.2821H28.5333C28.3181 38.2778 28.1128 38.1895 27.9606 38.0356C27.8083 37.8818 27.7209 37.6744 27.7167 37.4568V34.7621C27.7165 34.6611 27.7165 34.56 27.7167 34.4589L27.6333 34.3242L27.5333 34.1895H27.4167L27.2667 34.1053H27.1167H26.9667H18.7833C18.5623 34.1053 18.3504 34.194 18.1941 34.3519C18.0378 34.5098 17.95 34.724 17.95 34.9474V37.5579C17.9457 37.7754 17.8583 37.9828 17.7061 38.1367C17.5539 38.2905 17.3486 38.3789 17.1333 38.3832H14.5833C14.3681 38.3789 14.1628 38.2905 14.0106 38.1367C13.8583 37.9828 13.7709 37.7754 13.7667 37.5579V34.88C13.7813 34.7908 13.7813 34.6997 13.7667 34.6105C13.7434 34.5629 13.7155 34.5178 13.6833 34.4758C13.6542 34.3945 13.6078 34.3207 13.5473 34.2596C13.4868 34.1985 13.4138 34.1515 13.3333 34.1221L1.66667 29.0695V24.1853H3.73334C3.86132 24.1872 3.98803 24.1594 4.10364 24.1039C4.21925 24.0484 4.32066 23.9668 4.40001 23.8653C5.69869 22.2743 7.16263 20.8288 8.76667 19.5537L8.88334 19.4189V19.3011C8.88814 19.2506 8.88814 19.1999 8.88334 19.1495C8.88914 19.0935 8.88914 19.037 8.88334 18.9811V11.7895C10.4046 12.9945 11.7364 14.4254 12.8333 16.0337C12.8955 16.1414 12.9809 16.2336 13.0833 16.3032C13.1945 16.3714 13.3202 16.4118 13.45 16.4211H13.8333C16.7333 15.3432 18.8333 14.7368 19.5167 14.5853C20.9239 15.6358 22.6387 16.1801 24.3876 16.1312C26.1366 16.0824 27.819 15.4433 29.1667 14.3158C30.9171 14.87 32.4829 15.9 33.6928 17.2931C34.9028 18.6862 35.7102 20.3888 36.0268 22.2146C36.3435 24.0404 36.157 25.919 35.488 27.6448C34.8189 29.3707 33.6929 30.8774 32.2333 32Z" fill="black"/>
<path d="M8.9667 25.2295C9.85035 25.2295 10.5667 24.5056 10.5667 23.6127C10.5667 22.7197 9.85035 21.9958 8.9667 21.9958C8.08304 21.9958 7.3667 22.7197 7.3667 23.6127C7.3667 24.5056 8.08304 25.2295 8.9667 25.2295Z" fill="black"/>
<path d="M29.8 17.0273H18.5833C18.3623 17.0273 18.1504 17.1161 17.9941 17.274C17.8378 17.4319 17.75 17.6461 17.75 17.8694C17.75 18.0928 17.8378 18.307 17.9941 18.4649C18.1504 18.6228 18.3623 18.7116 18.5833 18.7116H29.8C30.021 18.7116 30.233 18.6228 30.3893 18.4649C30.5455 18.307 30.6333 18.0928 30.6333 17.8694C30.6333 17.6461 30.5455 17.4319 30.3893 17.274C30.233 17.1161 30.021 17.0273 29.8 17.0273Z" fill="black"/>
</g>
<defs>
<clipPath id="clip0_113_885">
<rect width="40" height="40" fill="white"/>
</clipPath>
</defs>
</svg>
