<svg width="18" height="18" viewBox="0 0 18 18" fill="none" xmlns="http://www.w3.org/2000/svg">
<g clip-path="url(#clip0_2_214)">
<path d="M17.0154 6.52502C17.0154 5.34729 16.5549 4.23987 15.7252 3.40667L12.6068 0.28479L9.48848 3.40315C9.28106 3.61057 9.10176 3.83206 8.94356 4.0676L7.31231 2.43635L2.8334 6.91174C0.36543 9.37971 0.36543 13.3946 2.8334 15.8625C4.06738 17.0965 5.68809 17.7117 7.30879 17.7117C8.92949 17.7117 10.5502 17.0965 11.7842 15.8625C12.9795 14.6672 13.6369 13.0781 13.6369 11.3871C13.6369 11.1973 13.6264 11.0039 13.6123 10.8176C14.4104 10.6313 15.1346 10.2305 15.7217 9.64338C16.5584 8.81018 17.0154 7.70276 17.0154 6.52502ZM13.5139 10.118C13.2713 8.91213 12.6771 7.8012 11.7877 6.91174L10.1248 5.25237L9.6291 5.74807L11.2885 7.40745C12.3502 8.47268 12.9373 9.88596 12.9373 11.3871C12.9373 12.8883 12.3537 14.3016 11.2885 15.3668C9.09473 17.5606 5.52637 17.5606 3.33262 15.3668C1.13887 13.1731 1.13887 9.60471 3.33262 7.41096L7.30879 3.43127L8.58496 4.70745C7.85371 6.33167 8.15254 8.31096 9.48496 9.64338C10.1705 10.3289 11.0424 10.7614 12.0021 10.8949L12.0971 10.1989C11.292 10.0899 10.5607 9.72424 9.98067 9.14768C8.53574 7.70276 8.53574 5.35081 9.98067 3.90237L12.6033 1.27971L15.226 3.90237C15.9256 4.60198 16.3123 5.53362 16.3123 6.52502C16.3123 7.51643 15.9256 8.44807 15.226 9.14768C14.7443 9.62581 14.1607 9.95979 13.5139 10.118Z" fill="black"/>
<path d="M13.7422 8.52537L14.0902 9.13708C14.3223 9.00349 14.5367 8.84177 14.7266 8.64841L14.2309 8.15271C14.0867 8.29685 13.9215 8.42341 13.7422 8.52537Z" fill="black"/>
<path d="M14.7301 4.39807L14.2344 4.89377C14.6703 5.32971 14.9094 5.90627 14.9094 6.52151C14.9094 6.92229 14.8039 7.31604 14.6105 7.66057L15.2223 8.00862C15.4789 7.55862 15.616 7.04534 15.616 6.52151C15.609 5.71995 15.2961 4.9676 14.7301 4.39807Z" fill="black"/>
<path d="M2.44298 10.6558C2.2883 11.6824 2.45705 12.7125 2.92814 13.6301L3.55392 13.3101C2.7172 11.6719 3.02658 9.69959 4.32736 8.40232L3.83166 7.90662C3.07931 8.65544 2.60119 9.60818 2.44298 10.6558Z" fill="black"/>
<path d="M3.33984 14.298C3.4875 14.4984 3.65273 14.6918 3.82852 14.8676L4.32422 14.3719C4.17305 14.2207 4.03242 14.0554 3.90586 13.8832L3.33984 14.298Z" fill="black"/>
</g>
<defs>
<clipPath id="clip0_2_214">
<rect width="18" height="18" fill="white"/>
</clipPath>
</defs>
</svg>
