<svg width="20" height="20" viewBox="0 0 20 20" fill="none" xmlns="http://www.w3.org/2000/svg">
<path d="M12.4666 5.04461C12.6935 5.04461 12.8777 4.86061 12.8777 4.6335V2.18883C12.8777 1.96172 12.6937 1.77772 12.4666 1.77772C12.2395 1.77772 12.0555 1.96172 12.0555 2.18883V4.6335C12.0555 4.86061 12.2395 5.04461 12.4666 5.04461ZM7.53305 5.04461C7.76016 5.04461 7.94416 4.86061 7.94416 4.6335V2.18883C7.94416 1.96172 7.76016 1.77772 7.53305 1.77772C7.30594 1.77772 7.12194 1.96172 7.12194 2.18883V4.6335C7.12194 4.86061 7.30594 5.04461 7.53305 5.04461ZM14.9331 0.955279C14.7062 0.955279 14.5219 1.13928 14.5219 1.36639V4.9755C13.8119 5.38839 11.4893 6.73883 11.4784 6.74506C11.0617 6.98572 10.7017 7.30172 10.4108 7.67039V0.544168C10.4108 0.317279 10.2268 0.133057 9.99972 0.133057C9.77261 0.133057 9.58861 0.317279 9.58861 0.544168V7.66972C9.29861 7.30239 8.94038 6.98728 8.52616 6.74817C8.51172 6.7395 6.69683 5.68417 5.4775 4.9755V1.36639C5.4775 1.13928 5.2935 0.955279 5.06638 0.955279C4.83927 0.955279 4.65527 1.13928 4.65527 1.36639V14.6982L4.65883 14.8075L4.66172 14.8126C4.71505 16.1011 5.4295 17.2899 6.54461 17.9337L9.99994 19.9304L13.4551 17.9344C14.5702 17.2904 15.2846 16.1015 15.3379 14.8131L15.3437 9.01217C15.3437 9.01039 15.3442 9.00861 15.3442 9.00706V1.36639C15.3442 1.13928 15.1602 0.955279 14.9331 0.955279ZM9.58883 18.7431L6.95594 17.2219C6.04727 16.6975 5.49594 15.7544 5.48105 14.6988L5.47927 11.2995C5.76994 11.6673 6.1295 11.9828 6.54483 12.2224L9.58883 13.9811V18.7431ZM6.95572 11.5106C6.04705 10.9864 5.49594 10.0433 5.48105 8.98772L5.47794 8.91817L5.47772 8.48661V5.92661C6.4095 6.46839 8.07105 7.43439 8.11016 7.45728C9.01283 7.97861 9.57794 8.9535 9.58527 10.0015L9.58905 13.0319L6.95572 11.5106ZM14.5222 14.5955L14.5186 14.6991C14.5039 15.7544 13.9524 16.6975 13.0437 17.2222L10.4111 18.7433V13.9813L13.4551 12.2228C13.8711 11.9828 14.2311 11.6666 14.5222 11.2979V14.5955ZM14.5222 8.88417L14.5186 8.98772C14.5039 10.0433 13.9526 10.9864 13.0437 11.5108L10.4111 13.0319V10.1142L10.4146 10.0017C10.4219 8.95372 10.9871 7.97884 11.8917 7.45617C11.9213 7.43906 13.5882 6.46995 14.5222 5.92683V8.88417Z" fill="black"/>
</svg>
