<svg width="64" height="64" viewBox="0 0 64 64" fill="none" xmlns="http://www.w3.org/2000/svg">
<g clip-path="url(#clip0_113_931)">
<path d="M63.9775 50.8889C63.9788 50.852 63.978 50.8151 63.9749 50.7783L59.0222 28.9868L62.9802 9.1968C62.982 9.16432 62.982 9.13178 62.9802 9.0993C62.9886 9.06659 62.9952 9.03344 63 9V5C63 4.73478 62.8946 4.48043 62.7071 4.29289C62.5196 4.10536 62.2652 4 62 4H2C1.73478 4 1.48043 4.10536 1.29289 4.29289C1.10536 4.48043 1 4.73478 1 5V9C1.00485 9.03327 1.01153 9.06626 1.02 9.0988C1.01825 9.13128 1.01825 9.16382 1.02 9.1963L4.978 28.9863L0.0251 50.7783C0.0220365 50.8151 0.0211683 50.852 0.0225 50.8889C0.0127289 50.9254 0.00521471 50.9625 0 51L0 59C0 59.2652 0.105357 59.5196 0.292893 59.7071C0.48043 59.8946 0.734784 60 1 60H63C63.2652 60 63.5196 59.8946 63.7071 59.7071C63.8946 59.5196 64 59.2652 64 59V51C63.9948 50.9625 63.9873 50.9254 63.9775 50.8889ZM6.7985 30H17.0909C11.8568 31.487 7.7272 33.7462 5.3262 36.4778L6.7985 30ZM57.2015 30L58.6738 36.4778C56.2728 33.7462 52.1432 31.487 46.9091 30H57.2015ZM11.9526 50C7.6559 47.8671 5 45.0764 5 42.066C5 35.5611 17.3643 30.066 32 30.066C46.6357 30.066 59 35.5611 59 42.066C59 45.076 56.3441 47.8671 52.0474 50H36C35.7348 50 35.4804 50.1054 35.2929 50.2929C35.1054 50.4804 35 50.7348 35 51C35 51.7956 34.6839 52.5587 34.1213 53.1213C33.5587 53.6839 32.7956 54 32 54C31.2044 54 30.4413 53.6839 29.8787 53.1213C29.3161 52.5587 29 51.7956 29 51C29 50.7348 28.8946 50.4804 28.7071 50.2929C28.5196 50.1054 28.2652 50 28 50H11.9526ZM7.9689 50H2.253L3.4714 44.6389C4.40273 46.8343 5.96891 48.7012 7.9689 50ZM60.5289 44.6389L61.747 50H56.0311C58.0311 48.7012 59.5973 46.8343 60.5286 44.6389H60.5289ZM3 6H61V8H36C35.7348 8 35.4804 8.10536 35.2929 8.29289C35.1054 8.48043 35 8.73478 35 9C35 9.79565 34.6839 10.5587 34.1213 11.1213C33.5587 11.6839 32.7956 12 32 12C31.2044 12 30.4413 11.6839 29.8787 11.1213C29.3161 10.5587 29 9.79565 29 9C29 8.73478 28.8946 8.48043 28.7071 8.29289C28.5196 8.10536 28.2652 8 28 8H3V6ZM3.22 10H27.1006C27.3312 11.1292 27.9448 12.1441 28.8375 12.873C29.7303 13.6019 30.8475 14.0001 32 14.0001C33.1525 14.0001 34.2697 13.6019 35.1625 12.873C36.0552 12.1441 36.6688 11.1292 36.8994 10H60.78L57.18 28H6.82L3.22 10ZM62 58H2V52H27.1006C27.3312 53.1292 27.9448 54.1441 28.8375 54.873C29.7303 55.6019 30.8475 56.0001 32 56.0001C33.1525 56.0001 34.2697 55.6019 35.1625 54.873C36.0552 54.1441 36.6688 53.1292 36.8994 52H62V58ZM28 47C28 48.6821 29.7568 50 32 50C34.2432 50 36 48.6821 36 47C36 45.3179 34.2432 44 32 44C29.7568 44 28 45.3179 28 47ZM34 47C34 47.4077 33.2207 48 32 48C30.7793 48 30 47.4077 30 47C30 46.5923 30.7793 46 32 46C33.2207 46 34 46.5923 34 47ZM20 43C17.7568 43 16 44.3179 16 46C16 47.6821 17.7568 49 20 49C22.2432 49 24 47.6821 24 46C24 44.3179 22.2432 43 20 43ZM20 47C18.7793 47 18 46.4077 18 46C18 45.5923 18.7793 45 20 45C21.2207 45 22 45.5923 22 46C22 46.4077 21.2207 47 20 47ZM39 46C39 47.6821 40.7568 49 43 49C45.2432 49 47 47.6821 47 46C47 44.3179 45.2432 43 43 43C40.7568 43 39 44.3179 39 46ZM45 46C45 46.4077 44.2207 47 43 47C41.7793 47 41 46.4077 41 46C41 45.5923 41.7793 45 43 45C44.2207 45 45 45.5923 45 46ZM32 37C34.2432 37 36 35.6821 36 34C36 32.3179 34.2432 31 32 31C29.7568 31 28 32.3179 28 34C28 35.6821 29.7568 37 32 37ZM32 33C33.2207 33 34 33.5923 34 34C34 34.4077 33.2207 35 32 35C30.7793 35 30 34.4077 30 34C30 33.5923 30.7793 33 32 33ZM21 34C18.7568 34 17 35.3179 17 37C17 38.6821 18.7568 40 21 40C23.2432 40 25 38.6821 25 37C25 35.3179 23.2432 34 21 34ZM21 38C19.7793 38 19 37.4077 19 37C19 36.5923 19.7793 36 21 36C22.2207 36 23 36.5923 23 37C23 37.4077 22.2207 38 21 38ZM42 39C44.2432 39 46 37.6821 46 36C46 34.3179 44.2432 33 42 33C39.7568 33 38 34.3179 38 36C38 37.6821 39.7568 39 42 39ZM42 35C43.2207 35 44 35.5923 44 36C44 36.4077 43.2207 37 42 37C40.7793 37 40 36.4077 40 36C40 35.5923 40.7793 35 42 35ZM12 38C9.7568 38 8 39.3179 8 41C8 42.6821 9.7568 44 12 44C14.2432 44 16 42.6821 16 41C16 39.3179 14.2432 38 12 38ZM12 42C10.7793 42 10 41.4077 10 41C10 40.5923 10.7793 40 12 40C13.2207 40 14 40.5923 14 41C14 41.4077 13.2207 42 12 42ZM52 44C54.2432 44 56 42.6821 56 41C56 39.3179 54.2432 38 52 38C49.7568 38 48 39.3179 48 41C48 42.6821 49.7568 44 52 44ZM52 40C53.2207 40 54 40.5923 54 41C54 41.4077 53.2207 42 52 42C50.7793 42 50 41.4077 50 41C50 40.5923 50.7793 40 52 40ZM28 42.0005C27.7623 42.0009 27.5321 41.9166 27.3509 41.7627C27.1697 41.6088 27.0493 41.3954 27.0112 41.1607C26.9731 40.9261 27.0199 40.6855 27.1431 40.4822C27.2663 40.2789 27.4579 40.1261 27.6836 40.0513L30.6836 39.0513C30.8082 39.0097 30.9397 38.9931 31.0707 39.0024C31.2017 39.0117 31.3296 39.0467 31.4471 39.1054C31.5646 39.1642 31.6693 39.2454 31.7554 39.3446C31.8415 39.4438 31.9071 39.559 31.9487 39.6836C31.9903 39.8082 32.0069 39.9397 31.9976 40.0707C31.9883 40.2017 31.9533 40.3296 31.8946 40.4471C31.8358 40.5646 31.7546 40.6693 31.6554 40.7554C31.5562 40.8415 31.441 40.9071 31.3164 40.9487L28.3164 41.9487C28.2144 41.983 28.1076 42.0005 28 42.0005V42.0005ZM36.0513 42.3164C36.0097 42.1918 35.9931 42.0603 36.0024 41.9293C36.0117 41.7983 36.0467 41.6704 36.1054 41.5529C36.1641 41.4354 36.2454 41.3306 36.3446 41.2446C36.4438 41.1585 36.559 41.0928 36.6836 41.0513L39.6836 40.0513C39.9352 39.9674 40.2099 39.9869 40.4471 40.1054C40.6844 40.224 40.8648 40.432 40.9487 40.6836C41.0326 40.9352 41.0131 41.2099 40.8946 41.4471C40.776 41.6844 40.568 41.8648 40.3164 41.9487L37.3164 42.9487C37.1918 42.9905 37.0602 43.0072 36.9292 42.998C36.7981 42.9889 36.6701 42.9539 36.5526 42.8951C36.4351 42.8364 36.3303 42.755 36.2443 42.6557C36.1583 42.5564 36.0927 42.4411 36.0513 42.3164V42.3164Z" fill="white"/>
</g>
<defs>
<clipPath id="clip0_113_931">
<rect width="64" height="64" fill="white"/>
</clipPath>
</defs>
</svg>
