<svg width="64" height="64" viewBox="0 0 64 64" fill="none" xmlns="http://www.w3.org/2000/svg">
<g clip-path="url(#clip0_113_935)">
<path fill-rule="evenodd" clip-rule="evenodd" d="M56.0952 31.6491C56.0858 31.7925 56.0688 31.935 56.0543 32.0775C56.0679 31.935 56.0867 31.7925 56.0952 31.6491ZM61.0659 45.7078C60.7237 47.5681 59.8857 47.9154 59.611 48.0297C57.5101 48.9044 53.397 46.7796 50.0656 44.7034C50.546 44.1889 50.971 43.6163 51.3089 42.978L54.7418 36.4952C55.3059 35.4303 55.6814 34.3047 55.9015 33.1578C55.9007 33.1578 55.9015 33.1578 55.9007 33.1578C60.2313 36.5814 61.9704 40.7977 61.0659 45.7078ZM44.4396 19.7468C44.4541 19.7912 44.466 19.8364 44.4797 19.8817C44.466 19.8373 44.4549 19.7912 44.4396 19.7468ZM44.0803 18.8218C44.1349 18.9464 44.1895 19.0702 44.239 19.1964C44.1887 19.0702 44.1349 18.9464 44.0803 18.8218ZM42.069 44.6608L40.4357 44.2187C40.6618 43.688 40.841 43.1324 40.9554 42.5513L44.7305 25.1288C44.9917 23.8027 45.0045 22.5048 44.8056 21.2675V21.2683L46.0882 21.6148C49.1457 22.4408 51.5913 24.5067 52.7971 27.2809C53.9218 29.8699 53.8066 32.7918 52.4805 35.2963L49.0476 41.7799C47.7676 44.1966 44.8304 45.4083 42.069 44.6608ZM31.9305 47.1235C28.7331 47.1235 25.993 44.9825 25.4077 42.0095L21.6428 24.6339C21.17 22.2352 21.6931 19.9619 23.1148 18.2322C24.6653 16.348 27.0717 15.3095 29.8928 15.3095H33.9683C36.7894 15.3095 39.1958 16.348 40.7463 18.2322C42.168 19.9619 42.6911 22.2352 42.2234 24.6108L38.4483 42.0342C37.8689 44.9825 35.1271 47.1235 31.9305 47.1235ZM19.4215 19.7486C19.4079 19.7887 19.3976 19.8305 19.3857 19.8706C19.3976 19.8305 19.4079 19.7895 19.4215 19.7486ZM19.7808 18.8244C19.7262 18.9473 19.6733 19.0702 19.6229 19.1956C19.6724 19.0702 19.7262 18.9473 19.7808 18.8244ZM23.4288 44.2179L21.7921 44.6608C19.0316 45.4074 16.0927 44.1966 14.8135 41.7799L11.3806 35.2963C10.0545 32.7918 9.93929 29.8699 11.064 27.2809C12.2697 24.5067 14.7154 22.4408 17.7729 21.6148L19.0572 21.2675C18.8583 22.5091 18.872 23.8147 19.1357 25.1527L22.9006 42.5274C23.0166 43.1171 23.1992 43.6803 23.4296 44.2187C23.4288 44.2187 23.4288 44.2187 23.4288 44.2179ZM7.76585 31.6491C7.77438 31.7925 7.79315 31.935 7.80681 32.0775C7.7923 31.935 7.77523 31.7925 7.76585 31.6491ZM4.25011 48.0297C3.97534 47.9154 3.13737 47.5681 2.79518 45.7078C1.89065 40.7977 3.62974 36.5814 7.96041 33.1578C7.95955 33.1578 7.96041 33.1578 7.95955 33.1578C8.17971 34.3047 8.55518 35.4303 9.11923 36.4952L12.5522 42.978C12.8901 43.6163 13.3151 44.1889 13.7955 44.7034C10.4641 46.7787 6.35273 48.9035 4.25011 48.0297ZM56.0969 30.1806C56.1183 30.504 56.12 30.8274 56.1132 31.1508C56.1396 29.4936 55.8264 27.8296 55.1455 26.2603C53.6274 22.7685 50.5699 20.1744 46.7572 19.1435L43.8687 18.3627C43.5529 17.7449 43.1741 17.1553 42.7235 16.6066C40.7079 14.1558 37.5165 12.7495 33.9683 12.7495H29.8928C26.3446 12.7495 23.1532 14.1558 21.1376 16.6066C20.687 17.1544 20.309 17.7441 19.9933 18.3627L17.1039 19.1435C13.2912 20.1744 10.2337 22.7685 8.71561 26.2603C8.03465 27.8296 7.72147 29.4936 7.74878 31.1508C7.7411 30.8274 7.74281 30.504 7.76414 30.1806C3.1971 33.3072 -1.15319 38.4058 0.276993 46.1712C0.672087 48.313 1.67731 49.7338 3.26878 50.3943C3.91305 50.6614 4.61619 50.7834 5.36542 50.7834C8.41353 50.7834 12.2237 48.7662 15.9527 46.3649C17.2242 47.0527 18.668 47.4384 20.1545 47.4384C20.9191 47.4384 21.6948 47.3394 22.4602 47.132L24.8479 46.4869C26.5477 48.453 29.1103 49.6835 31.9305 49.6835C34.7525 49.6835 37.3176 48.4504 39.0166 46.4878L41.4008 47.132C42.1671 47.3394 42.9411 47.4384 43.7065 47.4384C45.1922 47.4384 46.636 47.0527 47.9084 46.364C51.6374 48.7653 55.4476 50.7834 58.4957 50.7834C59.2449 50.7834 59.9489 50.6614 60.5923 50.3943C62.1838 49.7338 63.189 48.313 63.5841 46.1712C65.0143 38.4058 60.664 33.3072 56.0969 30.1806Z" fill="white"/>
</g>
<defs>
<clipPath id="clip0_113_935">
<rect width="64" height="64" fill="white"/>
</clipPath>
</defs>
</svg>
