<svg width="64" height="64" viewBox="0 0 64 64" fill="none" xmlns="http://www.w3.org/2000/svg">
<path d="M47.9998 64H15.9998C15.3038 64 14.7238 63.464 14.6705 62.7693L12.0932 29.2613C6.79317 28.6453 2.6665 24.1293 2.6665 18.6667C2.6665 12.7747 7.5705 7.79867 13.3758 7.79867C14.5892 7.79867 15.7798 8.03467 16.8905 8.492C18.7625 3.34533 24.5852 0 31.9998 0C38.9652 0 43.8372 2.816 46.8532 8.6C48.0358 8.072 49.3172 7.79733 50.6238 7.79733C56.4292 7.79867 61.3332 12.7747 61.3332 18.6667C61.3332 24.1293 57.2065 28.6453 51.9065 29.2613L49.3292 62.7693C49.2758 63.464 48.6958 64 47.9998 64ZM17.2345 61.3333H46.7638L49.3358 27.8973C49.3905 27.2027 49.9705 26.6667 50.6665 26.6667C55.0785 26.6667 58.6665 23.0787 58.6665 18.6667C58.6665 13.8333 54.4278 10.4653 50.6238 10.4653C49.3145 10.4653 48.0918 10.8307 46.9918 11.5547C46.6652 11.7693 46.2572 11.8307 45.8825 11.7187C45.5065 11.608 45.1985 11.3387 45.0398 10.9787C42.5305 5.308 38.3878 2.66667 31.9998 2.66667C25.1238 2.66667 19.9212 5.88667 19.0532 10.6787C18.9732 11.1187 18.6785 11.4893 18.2665 11.6653C17.8558 11.844 17.3825 11.8013 17.0092 11.5547C15.9092 10.8307 14.6865 10.4653 13.3772 10.4653C9.57184 10.4653 5.33317 13.8333 5.33317 18.6667C5.33317 23.0787 8.92117 26.6667 13.3332 26.6667C14.0292 26.6667 14.6092 27.2027 14.6625 27.8973L17.2345 61.3333Z" fill="white"/>
<path d="M48.833 53.3332H15.1663C14.4303 53.3332 13.833 52.7372 13.833 51.9998C13.833 51.2625 14.4303 50.6665 15.1663 50.6665H48.833C49.569 50.6665 50.1663 51.2625 50.1663 51.9998C50.1663 52.7372 49.569 53.3332 48.833 53.3332Z" fill="white"/>
<path d="M25.3333 53.3333C24.5973 53.3333 24 52.7373 24 52V41.3333C24 40.596 24.5973 40 25.3333 40C26.0693 40 26.6667 40.596 26.6667 41.3333V52C26.6667 52.7373 26.0693 53.3333 25.3333 53.3333Z" fill="white"/>
<path d="M31.9998 53.3335C31.2638 53.3335 30.6665 52.7375 30.6665 52.0002V38.6668C30.6665 37.9295 31.2638 37.3335 31.9998 37.3335C32.7358 37.3335 33.3332 37.9295 33.3332 38.6668V52.0002C33.3332 52.7375 32.7358 53.3335 31.9998 53.3335Z" fill="white"/>
<path d="M38.6663 53.3333C37.9303 53.3333 37.333 52.7373 37.333 52V41.3333C37.333 40.596 37.9303 40 38.6663 40C39.4023 40 39.9997 40.596 39.9997 41.3333V52C39.9997 52.7373 39.4023 53.3333 38.6663 53.3333Z" fill="white"/>
</svg>
