<svg width="64" height="64" viewBox="0 0 64 64" fill="none" xmlns="http://www.w3.org/2000/svg">
<g clip-path="url(#clip0_113_955)">
<path d="M7 35.0005H35C35.7108 35.0024 36.399 34.7513 36.9414 34.292C37.4839 33.8327 37.8451 33.1953 37.9603 32.4939C38.0756 31.7926 37.9374 31.0731 37.5705 30.4643C37.2036 29.8556 36.632 29.3974 35.958 29.1717C35.7527 25.5211 34.2208 22.0712 31.6504 19.4708C29.0799 16.8704 25.648 15.2986 22 15.0511V14.0005C22 13.7353 21.8946 13.4809 21.7071 13.2934C21.5196 13.1059 21.2652 13.0005 21 13.0005C20.7348 13.0005 20.4804 13.1059 20.2929 13.2934C20.1054 13.4809 20 13.7353 20 14.0005V15.0511C16.352 15.2986 12.9201 16.8704 10.3496 19.4708C7.77916 22.0712 6.24726 25.5211 6.042 29.1717C5.36801 29.3974 4.79638 29.8556 4.42948 30.4643C4.06258 31.0731 3.9244 31.7926 4.03967 32.4939C4.15494 33.1953 4.51614 33.8327 5.05857 34.292C5.60101 34.7513 6.28924 35.0024 7 35.0005ZM21 17.0005C24.272 17.0056 27.422 18.2435 29.8219 20.4675C32.2219 22.6916 33.6956 25.7383 33.9493 29.0005H8.0507C8.30439 25.7383 9.7781 22.6916 12.1781 20.4675C14.578 18.2435 17.728 17.0056 21 17.0005ZM7 31.0005H35C35.2652 31.0005 35.5196 31.1059 35.7071 31.2934C35.8946 31.4809 36 31.7353 36 32.0005C36 32.2657 35.8946 32.5201 35.7071 32.7076C35.5196 32.8951 35.2652 33.0005 35 33.0005H7C6.73478 33.0005 6.48043 32.8951 6.29289 32.7076C6.10536 32.5201 6 32.2657 6 32.0005C6 31.7353 6.10536 31.4809 6.29289 31.2934C6.48043 31.1059 6.73478 31.0005 7 31.0005ZM62.9608 50.48C62.7624 47.7122 61.0358 45.4234 58.7964 45.0632L55.7275 32.7881C55.4585 31.7055 54.8346 30.7443 53.9554 30.0577C53.0763 29.3711 51.9925 28.9987 50.877 29H42V6C42 5.73478 41.8946 5.48043 41.7071 5.29289C41.5196 5.10536 41.2652 5 41 5H1C0.734784 5 0.48043 5.10536 0.292893 5.29289C0.105357 5.48043 0 5.73478 0 6L0 54C0 54.2652 0.105357 54.5196 0.292893 54.7071C0.48043 54.8946 0.734784 55 1 55H7.1011C7.33167 56.1291 7.94519 57.1439 8.83788 57.8727C9.73056 58.6015 10.8476 58.9996 12 58.9996C13.1524 58.9996 14.2694 58.6015 15.1621 57.8727C16.0548 57.1439 16.6683 56.1291 16.8989 55H47.1011C47.3317 56.1291 47.9452 57.1439 48.8379 57.8727C49.7306 58.6015 50.8476 58.9996 52 58.9996C53.1524 58.9996 54.2694 58.6015 55.1621 57.8727C56.0548 57.1439 56.6683 56.1291 56.8989 55H61.5C62.0284 55.0014 62.5437 54.8348 62.9713 54.5244C63.399 54.214 63.717 53.7758 63.8795 53.273C64.042 52.7701 64.0406 52.2287 63.8755 51.7267C63.7104 51.2247 63.3901 50.7882 62.9608 50.48ZM53.7871 33.2725L56.2192 43H47C46.7349 42.9998 46.4806 42.8943 46.2932 42.7068C46.1057 42.5194 46.0002 42.2651 46 42V31H50.877C51.5462 30.9992 52.1965 31.2225 52.7239 31.6344C53.2514 32.0463 53.6257 32.623 53.7871 33.2725ZM44 31V42C44.0009 42.7954 44.3172 43.5579 44.8796 44.1204C45.4421 44.6828 46.2046 44.9991 47 45H56.7192L57.0298 46.2422C57.0838 46.4586 57.2087 46.6508 57.3845 46.7881C57.5603 46.9254 57.7769 47 58 47C58.7954 47.0009 59.5579 47.3172 60.1204 47.8796C60.6828 48.4421 60.9991 49.2046 61 50H54.9691C54.1152 49.3512 53.0724 49 52 49C50.9276 49 49.8848 49.3512 49.0309 50H42V31H44ZM40 7V50H14.9691C14.1152 49.3512 13.0724 49 12 49C10.9276 49 9.88477 49.3512 9.0309 50H2V7H40ZM2 52H7.4238C7.28103 52.3209 7.17285 52.6562 7.1011 53H2V52ZM12 57C11.4067 57 10.8266 56.8241 10.3333 56.4944C9.83994 56.1648 9.45542 55.6962 9.22836 55.148C9.0013 54.5999 8.94189 53.9967 9.05764 53.4147C9.1734 52.8328 9.45912 52.2982 9.87868 51.8787C10.2982 51.4591 10.8328 51.1734 11.4147 51.0576C11.9967 50.9419 12.5999 51.0013 13.1481 51.2284C13.6962 51.4554 14.1648 51.8399 14.4944 52.3333C14.8241 52.8266 15 53.4067 15 54C14.9991 54.7954 14.6828 55.5579 14.1204 56.1204C13.5579 56.6828 12.7954 56.9991 12 57ZM39 53H16.8989C16.8271 52.6562 16.719 52.3209 16.5762 52H47.4238C47.281 52.3209 47.1729 52.6562 47.1011 53H39ZM52 57C51.4067 57 50.8266 56.8241 50.3333 56.4944C49.8399 56.1648 49.4554 55.6962 49.2284 55.148C49.0013 54.5999 48.9419 53.9967 49.0576 53.4147C49.1734 52.8328 49.4591 52.2982 49.8787 51.8787C50.2982 51.4591 50.8328 51.1734 51.4147 51.0576C51.9967 50.9419 52.5999 51.0013 53.148 51.2284C53.6962 51.4554 54.1648 51.8399 54.4944 52.3333C54.8241 52.8266 55 53.4067 55 54C54.9991 54.7954 54.6828 55.5579 54.1204 56.1204C53.5579 56.6828 52.7954 56.9991 52 57ZM61.5 53H56.8989C56.8271 52.6562 56.719 52.3209 56.5762 52H61.5C61.6326 52 61.7598 52.0527 61.8536 52.1464C61.9473 52.2402 62 52.3674 62 52.5C62 52.6326 61.9473 52.7598 61.8536 52.8536C61.7598 52.9473 61.6326 53 61.5 53Z" fill="white"/>
</g>
<defs>
<clipPath id="clip0_113_955">
<rect width="64" height="64" fill="white"/>
</clipPath>
</defs>
</svg>
